<svg width="164" height="20" viewBox="0 0 164 20" fill="none" xmlns="http://www.w3.org/2000/svg">
<mask id="mask0_38_12" style="mask-type:luminance" maskUnits="userSpaceOnUse" x="0" y="0" width="20" height="20">
<path d="M20 0H0V20H20V0Z" fill="white"/>
</mask>
<g mask="url(#mask0_38_12)">
<path d="M19.6 10.2273C19.6 9.51822 19.5364 8.83642 19.4182 8.18182H10V12.05H15.3818C15.15 13.3 14.4455 14.3591 13.3864 15.0682V17.5773H16.6182C18.5091 15.8364 19.6 13.2727 19.6 10.2273Z" fill="#4285F4"/>
<path d="M9.99988 20C12.6999 20 14.9635 19.1045 16.618 17.5773L13.3862 15.0682C12.4908 15.6682 11.3453 16.0227 9.99988 16.0227C7.39528 16.0227 5.19078 14.2636 4.40438 11.9H1.06348V14.4909C2.70898 17.7591 6.09078 20 9.99988 20Z" fill="#34A853"/>
<path d="M4.4045 11.9C4.2045 11.3 4.0909 10.6591 4.0909 9.99999C4.0909 9.34089 4.2045 8.69999 4.4045 8.09999V5.50909H1.0636C0.3864 6.85909 0 8.38639 0 9.99999C0 11.6136 0.3864 13.1409 1.0636 14.4909L4.4045 11.9Z" fill="#FBBC04"/>
<path d="M9.99988 3.9773C11.468 3.9773 12.7862 4.4818 13.8226 5.4727L16.6908 2.6045C14.959 0.9909 12.6953 0 9.99988 0C6.09078 0 2.70898 2.2409 1.06348 5.5091L4.40438 8.1C5.19078 5.7364 7.39528 3.9773 9.99988 3.9773Z" fill="#E94235"/>
</g>
<path d="M36.8906 11.7598H38.5996C38.5449 12.4115 38.3626 12.9925 38.0527 13.5029C37.7428 14.0088 37.3076 14.4076 36.7471 14.6992C36.1865 14.9909 35.5052 15.1367 34.7031 15.1367C34.0879 15.1367 33.5342 15.0273 33.042 14.8086C32.5498 14.5853 32.1283 14.2708 31.7773 13.8652C31.4264 13.4551 31.1576 12.9606 30.9707 12.3818C30.7884 11.8031 30.6973 11.1559 30.6973 10.4404V9.6133C30.6973 8.8978 30.7907 8.2507 30.9775 7.6719C31.1689 7.0931 31.4424 6.5986 31.7979 6.1885C32.1533 5.7738 32.5794 5.457 33.0762 5.2383C33.5775 5.0195 34.1403 4.9102 34.7646 4.9102C35.5576 4.9102 36.2275 5.056 36.7744 5.3477C37.3213 5.6393 37.7451 6.0426 38.0459 6.5576C38.3512 7.0726 38.5381 7.6628 38.6064 8.3281H36.8975C36.8519 7.8997 36.7516 7.5329 36.5967 7.2275C36.4463 6.9222 36.223 6.6898 35.9268 6.5303C35.6305 6.3662 35.2432 6.2842 34.7646 6.2842C34.3727 6.2842 34.0309 6.3571 33.7393 6.5029C33.4476 6.6488 33.2038 6.863 33.0078 7.1455C32.8118 7.4281 32.6637 7.7767 32.5635 8.1914C32.4678 8.6016 32.4199 9.071 32.4199 9.5996V10.4404C32.4199 10.9417 32.4632 11.3975 32.5498 11.8076C32.641 12.2132 32.7777 12.5618 32.96 12.8535C33.1468 13.1452 33.3838 13.3708 33.6709 13.5303C33.958 13.6898 34.3021 13.7695 34.7031 13.7695C35.1908 13.7695 35.585 13.6921 35.8857 13.5371C36.1911 13.3822 36.4212 13.1566 36.5762 12.8604C36.7357 12.5596 36.8405 12.1927 36.8906 11.7598ZM39.6797 11.3838V11.2266C39.6797 10.6934 39.7572 10.1989 39.9121 9.7432C40.0671 9.2829 40.2904 8.8841 40.582 8.5469C40.8783 8.2051 41.2383 7.9408 41.6621 7.7539C42.0905 7.5625 42.5736 7.4668 43.1113 7.4668C43.6536 7.4668 44.1367 7.5625 44.5605 7.7539C44.9889 7.9408 45.3512 8.2051 45.6475 8.5469C45.9437 8.8841 46.1693 9.2829 46.3242 9.7432C46.4792 10.1989 46.5566 10.6934 46.5566 11.2266V11.3838C46.5566 11.917 46.4792 12.4115 46.3242 12.8672C46.1693 13.3229 45.9437 13.7217 45.6475 14.0635C45.3512 14.4007 44.9912 14.665 44.5674 14.8564C44.1436 15.0433 43.6628 15.1367 43.125 15.1367C42.5827 15.1367 42.0973 15.0433 41.6689 14.8564C41.2451 14.665 40.8851 14.4007 40.5889 14.0635C40.2926 13.7217 40.0671 13.3229 39.9121 12.8672C39.7572 12.4115 39.6797 11.917 39.6797 11.3838ZM41.3271 11.2266V11.3838C41.3271 11.7165 41.3613 12.0309 41.4297 12.3271C41.498 12.6234 41.6051 12.8831 41.751 13.1064C41.8968 13.3298 42.0837 13.5052 42.3115 13.6328C42.5394 13.7604 42.8105 13.8242 43.125 13.8242C43.4303 13.8242 43.6947 13.7604 43.918 13.6328C44.1458 13.5052 44.3327 13.3298 44.4785 13.1064C44.6243 12.8831 44.7314 12.6234 44.7998 12.3271C44.8727 12.0309 44.9092 11.7165 44.9092 11.3838V11.2266C44.9092 10.8984 44.8727 10.5885 44.7998 10.2969C44.7314 10.0007 44.6221 9.7386 44.4717 9.5107C44.3258 9.2829 44.139 9.1051 43.9111 8.9775C43.6878 8.8454 43.4212 8.7793 43.1113 8.7793C42.8014 8.7793 42.5326 8.8454 42.3047 8.9775C42.0814 9.1051 41.8968 9.2829 41.751 9.5107C41.6051 9.7386 41.498 10.0007 41.4297 10.2969C41.3613 10.5885 41.3271 10.8984 41.3271 11.2266ZM49.5713 9.1826V15H47.9238V7.6035H49.4756L49.5713 9.1826ZM49.2773 11.0283L48.7441 11.0215C48.7487 10.4974 48.8216 10.0166 48.9629 9.5791C49.1087 9.1416 49.3092 8.7656 49.5645 8.4512C49.8242 8.1367 50.1341 7.8952 50.4941 7.7266C50.8542 7.5534 51.2552 7.4668 51.6973 7.4668C52.0527 7.4668 52.374 7.5169 52.6611 7.6172C52.9528 7.7129 53.2012 7.8701 53.4062 8.0889C53.6159 8.3076 53.7754 8.5924 53.8848 8.9434C53.9941 9.2897 54.0488 9.7158 54.0488 10.2217V15H52.3945V10.2148C52.3945 9.8594 52.3421 9.5791 52.2373 9.374C52.137 9.1644 51.9889 9.0163 51.793 8.9297C51.6016 8.8385 51.3623 8.793 51.0752 8.793C50.7926 8.793 50.5397 8.8522 50.3164 8.9707C50.0931 9.0892 49.904 9.251 49.749 9.4561C49.5986 9.6611 49.4824 9.8981 49.4004 10.167C49.3184 10.4359 49.2773 10.723 49.2773 11.0283ZM59.1211 7.6035V8.8066H54.9512V7.6035H59.1211ZM56.1543 5.792H57.8018V12.9561C57.8018 13.1839 57.8337 13.3594 57.8975 13.4824C57.9658 13.6009 58.0592 13.6807 58.1777 13.7217C58.2962 13.7627 58.4352 13.7832 58.5947 13.7832C58.7087 13.7832 58.818 13.7764 58.9229 13.7627C59.0277 13.749 59.112 13.7354 59.1758 13.7217L59.1826 14.9795C59.0459 15.0205 58.8864 15.057 58.7041 15.0889C58.5264 15.1208 58.3213 15.1367 58.0889 15.1367C57.7106 15.1367 57.3757 15.0706 57.084 14.9385C56.7923 14.8018 56.5645 14.5807 56.4004 14.2754C56.2363 13.9701 56.1543 13.5645 56.1543 13.0586V5.792ZM62.1562 7.6035V15H60.502V7.6035H62.1562ZM60.3926 5.6621C60.3926 5.4115 60.4746 5.2041 60.6387 5.04C60.8073 4.8714 61.0397 4.7871 61.3359 4.7871C61.6276 4.7871 61.8577 4.8714 62.0264 5.04C62.195 5.2041 62.2793 5.4115 62.2793 5.6621C62.2793 5.9082 62.195 6.1133 62.0264 6.2773C61.8577 6.4414 61.6276 6.5234 61.3359 6.5234C61.0397 6.5234 60.8073 6.4414 60.6387 6.2773C60.4746 6.1133 60.3926 5.9082 60.3926 5.6621ZM65.5947 9.1826V15H63.9473V7.6035H65.499L65.5947 9.1826ZM65.3008 11.0283L64.7676 11.0215C64.7721 10.4974 64.8451 10.0166 64.9863 9.5791C65.1322 9.1416 65.3327 8.7656 65.5879 8.4512C65.8477 8.1367 66.1576 7.8952 66.5176 7.7266C66.8776 7.5534 67.2786 7.4668 67.7207 7.4668C68.0762 7.4668 68.3975 7.5169 68.6846 7.6172C68.9762 7.7129 69.2246 7.8701 69.4297 8.0889C69.6393 8.3076 69.7988 8.5924 69.9082 8.9434C70.0176 9.2897 70.0723 9.7158 70.0723 10.2217V15H68.418V10.2148C68.418 9.8594 68.3656 9.5791 68.2607 9.374C68.1605 9.1644 68.0124 9.0163 67.8164 8.9297C67.625 8.8385 67.3857 8.793 67.0986 8.793C66.8161 8.793 66.5632 8.8522 66.3398 8.9707C66.1165 9.0892 65.9274 9.251 65.7725 9.4561C65.6221 9.6611 65.5059 9.8981 65.4238 10.167C65.3418 10.4359 65.3008 10.723 65.3008 11.0283ZM76.2041 13.2568V7.6035H77.8584V15H76.2998L76.2041 13.2568ZM76.4365 11.7188L76.9902 11.7051C76.9902 12.2018 76.9355 12.6598 76.8262 13.0791C76.7168 13.4938 76.5482 13.8561 76.3203 14.166C76.0924 14.4714 75.8008 14.7106 75.4453 14.8838C75.0898 15.0524 74.6637 15.1367 74.167 15.1367C73.807 15.1367 73.4766 15.0843 73.1758 14.9795C72.875 14.8747 72.6152 14.7129 72.3965 14.4941C72.1823 14.2754 72.016 13.9906 71.8975 13.6396C71.779 13.2887 71.7197 12.8695 71.7197 12.3818V7.6035H73.3672V12.3955C73.3672 12.6644 73.3991 12.89 73.4629 13.0723C73.5267 13.25 73.6133 13.3936 73.7227 13.5029C73.832 13.6123 73.9596 13.6898 74.1055 13.7354C74.2513 13.7809 74.4062 13.8037 74.5703 13.8037C75.0397 13.8037 75.4089 13.7126 75.6777 13.5303C75.9512 13.3434 76.1449 13.0928 76.2588 12.7783C76.3773 12.4639 76.4365 12.1107 76.4365 11.7188ZM82.8076 15.1367C82.2607 15.1367 81.7663 15.0479 81.3242 14.8701C80.8867 14.6878 80.513 14.4349 80.2031 14.1113C79.8978 13.7878 79.6631 13.4072 79.499 12.9697C79.335 12.5322 79.2529 12.0605 79.2529 11.5547V11.2812C79.2529 10.7025 79.3372 10.1784 79.5059 9.709C79.6745 9.2396 79.9092 8.8385 80.21 8.5059C80.5107 8.1686 80.8662 7.9111 81.2764 7.7334C81.6865 7.5557 82.1309 7.4668 82.6094 7.4668C83.138 7.4668 83.6006 7.5557 83.9971 7.7334C84.3936 7.9111 84.7217 8.1618 84.9814 8.4854C85.2458 8.8044 85.4417 9.1849 85.5693 9.627C85.7015 10.069 85.7676 10.5566 85.7676 11.0898V11.7939H80.0527V10.6113H84.1406V10.4814C84.1315 10.1852 84.0723 9.9072 83.9629 9.6475C83.8581 9.3877 83.6963 9.1781 83.4775 9.0186C83.2588 8.859 82.9671 8.7793 82.6025 8.7793C82.3291 8.7793 82.0853 8.8385 81.8711 8.957C81.6615 9.071 81.486 9.2373 81.3447 9.4561C81.2035 9.6748 81.0941 9.9391 81.0166 10.249C80.9437 10.5544 80.9072 10.8984 80.9072 11.2812V11.5547C80.9072 11.8783 80.9505 12.179 81.0371 12.457C81.1283 12.7305 81.2604 12.9697 81.4336 13.1748C81.6068 13.3799 81.8164 13.5417 82.0625 13.6602C82.3086 13.7741 82.5889 13.8311 82.9033 13.8311C83.2998 13.8311 83.653 13.7513 83.9629 13.5918C84.2728 13.4323 84.5417 13.2067 84.7695 12.915L85.6377 13.7559C85.4782 13.9883 85.2708 14.2116 85.0156 14.4258C84.7604 14.6354 84.4482 14.8063 84.0791 14.9385C83.7145 15.0706 83.2907 15.1367 82.8076 15.1367ZM92.549 13.3594L94.258 7.6035H95.311L95.023 9.3262L93.301 15H92.357L92.549 13.3594ZM91.544 7.6035L92.877 13.3867L92.986 15H91.934L89.931 7.6035H91.544ZM96.91 13.3184L98.202 7.6035H99.809L97.812 15H96.76L96.91 13.3184ZM95.488 7.6035L97.177 13.291L97.389 15H96.445L94.702 9.3193L94.415 7.6035H95.488ZM102.693 7.6035V15H101.039V7.6035H102.693ZM100.93 5.6621C100.93 5.4115 101.012 5.2041 101.176 5.04C101.344 4.8714 101.577 4.7871 101.873 4.7871C102.165 4.7871 102.395 4.8714 102.563 5.04C102.732 5.2041 102.816 5.4115 102.816 5.6621C102.816 5.9082 102.732 6.1133 102.563 6.2773C102.395 6.4414 102.165 6.5234 101.873 6.5234C101.577 6.5234 101.344 6.4414 101.176 6.2773C101.012 6.1133 100.93 5.9082 100.93 5.6621ZM107.889 7.6035V8.8066H103.719V7.6035H107.889ZM104.922 5.792H106.569V12.9561C106.569 13.1839 106.601 13.3594 106.665 13.4824C106.733 13.6009 106.827 13.6807 106.945 13.7217C107.064 13.7627 107.203 13.7832 107.362 13.7832C107.476 13.7832 107.586 13.7764 107.69 13.7627C107.795 13.749 107.88 13.7354 107.943 13.7217L107.95 14.9795C107.813 15.0205 107.654 15.057 107.472 15.0889C107.294 15.1208 107.089 15.1367 106.856 15.1367C106.478 15.1367 106.143 15.0706 105.852 14.9385C105.56 14.8018 105.332 14.5807 105.168 14.2754C105.004 13.9701 104.922 13.5645 104.922 13.0586V5.792ZM110.787 4.5V15H109.146V4.5H110.787ZM110.5 11.0283L109.967 11.0215C109.971 10.5111 110.042 10.0394 110.179 9.6064C110.32 9.1735 110.516 8.7975 110.767 8.4785C111.022 8.1549 111.327 7.9066 111.683 7.7334C112.038 7.5557 112.432 7.4668 112.865 7.4668C113.23 7.4668 113.558 7.5169 113.85 7.6172C114.146 7.7174 114.401 7.8792 114.615 8.1025C114.829 8.3213 114.991 8.6084 115.101 8.9639C115.215 9.3148 115.271 9.7432 115.271 10.249V15H113.617V10.2354C113.617 9.8799 113.565 9.5973 113.46 9.3877C113.36 9.1781 113.212 9.0277 113.016 8.9365C112.82 8.8408 112.58 8.793 112.298 8.793C112.002 8.793 111.74 8.8522 111.512 8.9707C111.288 9.0892 111.102 9.251 110.951 9.4561C110.801 9.6611 110.687 9.8981 110.609 10.167C110.536 10.4359 110.5 10.723 110.5 11.0283ZM128.232 9.9141V13.7148C128.091 13.9017 127.87 14.1068 127.569 14.3301C127.273 14.5488 126.879 14.738 126.387 14.8975C125.895 15.057 125.282 15.1367 124.548 15.1367C123.924 15.1367 123.352 15.0319 122.832 14.8223C122.312 14.6081 121.864 14.2959 121.485 13.8857C121.112 13.4756 120.822 12.9766 120.617 12.3887C120.412 11.7962 120.31 11.1217 120.31 10.3652V9.6748C120.31 8.9229 120.403 8.2529 120.59 7.665C120.781 7.0726 121.055 6.5713 121.41 6.1611C121.766 5.751 122.194 5.4411 122.695 5.2314C123.201 5.0173 123.773 4.9102 124.411 4.9102C125.227 4.9102 125.901 5.0469 126.435 5.3203C126.972 5.5892 127.387 5.9629 127.679 6.4414C127.97 6.9199 128.155 7.4668 128.232 8.082H126.551C126.496 7.7357 126.389 7.4258 126.229 7.1523C126.075 6.8789 125.851 6.6647 125.56 6.5098C125.272 6.3503 124.899 6.2705 124.438 6.2705C124.042 6.2705 123.693 6.3457 123.393 6.4961C123.092 6.6465 122.841 6.8675 122.641 7.1592C122.445 7.4508 122.297 7.8063 122.196 8.2256C122.096 8.6449 122.046 9.1234 122.046 9.6611V10.3652C122.046 10.9121 122.103 11.3975 122.217 11.8213C122.335 12.2451 122.504 12.6029 122.723 12.8945C122.946 13.1862 123.217 13.4072 123.536 13.5576C123.855 13.7035 124.215 13.7764 124.616 13.7764C125.008 13.7764 125.329 13.7445 125.58 13.6807C125.831 13.6123 126.029 13.5326 126.175 13.4414C126.325 13.3457 126.441 13.2546 126.523 13.168V11.1924H124.452V9.9141H128.232ZM129.654 11.3838V11.2266C129.654 10.6934 129.732 10.1989 129.887 9.7432C130.042 9.2829 130.265 8.8841 130.557 8.5469C130.853 8.2051 131.213 7.9408 131.637 7.7539C132.065 7.5625 132.548 7.4668 133.086 7.4668C133.628 7.4668 134.111 7.5625 134.535 7.7539C134.964 7.9408 135.326 8.2051 135.622 8.5469C135.918 8.8841 136.144 9.2829 136.299 9.7432C136.454 10.1989 136.531 10.6934 136.531 11.2266V11.3838C136.531 11.917 136.454 12.4115 136.299 12.8672C136.144 13.3229 135.918 13.7217 135.622 14.0635C135.326 14.4007 134.966 14.665 134.542 14.8564C134.118 15.0433 133.637 15.1367 133.1 15.1367C132.557 15.1367 132.072 15.0433 131.644 14.8564C131.22 14.665 130.86 14.4007 130.563 14.0635C130.267 13.7217 130.042 13.3229 129.887 12.8672C129.732 12.4115 129.654 11.917 129.654 11.3838ZM131.302 11.2266V11.3838C131.302 11.7165 131.336 12.0309 131.404 12.3271C131.473 12.6234 131.58 12.8831 131.726 13.1064C131.871 13.3298 132.058 13.5052 132.286 13.6328C132.514 13.7604 132.785 13.8242 133.1 13.8242C133.405 13.8242 133.669 13.7604 133.893 13.6328C134.12 13.5052 134.307 13.3298 134.453 13.1064C134.599 12.8831 134.706 12.6234 134.774 12.3271C134.847 12.0309 134.884 11.7165 134.884 11.3838V11.2266C134.884 10.8984 134.847 10.5885 134.774 10.2969C134.706 10.0007 134.597 9.7386 134.446 9.5107C134.3 9.2829 134.114 9.1051 133.886 8.9775C133.662 8.8454 133.396 8.7793 133.086 8.7793C132.776 8.7793 132.507 8.8454 132.279 8.9775C132.056 9.1051 131.871 9.2829 131.726 9.5107C131.58 9.7386 131.473 10.0007 131.404 10.2969C131.336 10.5885 131.302 10.8984 131.302 11.2266ZM137.598 11.3838V11.2266C137.598 10.6934 137.675 10.1989 137.83 9.7432C137.985 9.2829 138.208 8.8841 138.5 8.5469C138.796 8.2051 139.156 7.9408 139.58 7.7539C140.008 7.5625 140.492 7.4668 141.029 7.4668C141.572 7.4668 142.055 7.5625 142.479 7.7539C142.907 7.9408 143.269 8.2051 143.565 8.5469C143.862 8.8841 144.087 9.2829 144.242 9.7432C144.397 10.1989 144.475 10.6934 144.475 11.2266V11.3838C144.475 11.917 144.397 12.4115 144.242 12.8672C144.087 13.3229 143.862 13.7217 143.565 14.0635C143.269 14.4007 142.909 14.665 142.485 14.8564C142.062 15.0433 141.581 15.1367 141.043 15.1367C140.501 15.1367 140.015 15.0433 139.587 14.8564C139.163 14.665 138.803 14.4007 138.507 14.0635C138.211 13.7217 137.985 13.3229 137.83 12.8672C137.675 12.4115 137.598 11.917 137.598 11.3838ZM139.245 11.2266V11.3838C139.245 11.7165 139.279 12.0309 139.348 12.3271C139.416 12.6234 139.523 12.8831 139.669 13.1064C139.815 13.3298 140.002 13.5052 140.229 13.6328C140.457 13.7604 140.729 13.8242 141.043 13.8242C141.348 13.8242 141.613 13.7604 141.836 13.6328C142.064 13.5052 142.251 13.3298 142.396 13.1064C142.542 12.8831 142.649 12.6234 142.718 12.3271C142.791 12.0309 142.827 11.7165 142.827 11.3838V11.2266C142.827 10.8984 142.791 10.5885 142.718 10.2969C142.649 10.0007 142.54 9.7386 142.39 9.5107C142.244 9.2829 142.057 9.1051 141.829 8.9775C141.606 8.8454 141.339 8.7793 141.029 8.7793C140.719 8.7793 140.451 8.8454 140.223 8.9775C139.999 9.1051 139.815 9.2829 139.669 9.5107C139.523 9.7386 139.416 10.0007 139.348 10.2969C139.279 10.5885 139.245 10.8984 139.245 11.2266ZM150.593 7.6035H152.09V14.7949C152.09 15.4603 151.949 16.0254 151.666 16.4902C151.383 16.9551 150.989 17.3083 150.483 17.5498C149.978 17.7959 149.392 17.9189 148.727 17.9189C148.444 17.9189 148.13 17.8779 147.783 17.7959C147.441 17.7139 147.109 17.5817 146.785 17.3994C146.466 17.2217 146.2 16.987 145.985 16.6953L146.758 15.7246C147.022 16.0391 147.314 16.2692 147.633 16.415C147.952 16.5609 148.287 16.6338 148.638 16.6338C149.016 16.6338 149.337 16.5632 149.602 16.4219C149.87 16.2852 150.078 16.0824 150.224 15.8135C150.369 15.5446 150.442 15.2165 150.442 14.8291V9.2783L150.593 7.6035ZM145.568 11.3838V11.2402C145.568 10.6797 145.637 10.1693 145.773 9.709C145.91 9.2441 146.106 8.8454 146.361 8.5127C146.617 8.1755 146.926 7.918 147.291 7.7402C147.656 7.5579 148.068 7.4668 148.528 7.4668C149.007 7.4668 149.415 7.5534 149.752 7.7266C150.094 7.8997 150.379 8.1481 150.606 8.4717C150.834 8.7907 151.012 9.1735 151.14 9.6201C151.272 10.0622 151.37 10.5544 151.434 11.0967V11.5547C151.374 12.0833 151.274 12.5664 151.133 13.0039C150.992 13.4414 150.805 13.8197 150.572 14.1387C150.34 14.4577 150.053 14.7038 149.711 14.877C149.374 15.0501 148.975 15.1367 148.515 15.1367C148.063 15.1367 147.656 15.0433 147.291 14.8564C146.931 14.6696 146.621 14.4076 146.361 14.0703C146.106 13.7331 145.91 13.3366 145.773 12.8809C145.637 12.4206 145.568 11.9215 145.568 11.3838ZM147.216 11.2402V11.3838C147.216 11.721 147.248 12.0355 147.312 12.3271C147.38 12.6188 147.482 12.8763 147.619 13.0996C147.76 13.3184 147.938 13.4915 148.152 13.6191C148.371 13.7422 148.629 13.8037 148.925 13.8037C149.312 13.8037 149.629 13.7217 149.875 13.5576C150.126 13.3936 150.317 13.1725 150.449 12.8945C150.586 12.612 150.682 12.2975 150.736 11.9512V10.7139C150.709 10.445 150.652 10.1943 150.565 9.9619C150.483 9.7295 150.372 9.5267 150.23 9.3535C150.089 9.1758 149.911 9.0391 149.697 8.9434C149.483 8.8431 149.23 8.793 148.938 8.793C148.642 8.793 148.385 8.8568 148.166 8.9844C147.947 9.112 147.767 9.2874 147.626 9.5107C147.489 9.734 147.387 9.9938 147.318 10.29C147.25 10.5863 147.216 10.903 147.216 11.2402ZM155.562 4.5V15H153.908V4.5H155.562ZM160.628 15.1367C160.081 15.1367 159.587 15.0479 159.145 14.8701C158.707 14.6878 158.333 14.4349 158.023 14.1113C157.718 13.7878 157.483 13.4072 157.319 12.9697C157.155 12.5322 157.073 12.0605 157.073 11.5547V11.2812C157.073 10.7025 157.158 10.1784 157.326 9.709C157.495 9.2396 157.729 8.8385 158.03 8.5059C158.331 8.1686 158.687 7.9111 159.097 7.7334C159.507 7.5557 159.951 7.4668 160.43 7.4668C160.958 7.4668 161.421 7.5557 161.817 7.7334C162.214 7.9111 162.542 8.1618 162.802 8.4854C163.066 8.8044 163.262 9.1849 163.39 9.627C163.522 10.069 163.588 10.5566 163.588 11.0898V11.7939H157.873V10.6113H161.961V10.4814C161.952 10.1852 161.893 9.9072 161.783 9.6475C161.678 9.3877 161.517 9.1781 161.298 9.0186C161.079 8.859 160.787 8.7793 160.423 8.7793C160.149 8.7793 159.906 8.8385 159.691 8.957C159.482 9.071 159.306 9.2373 159.165 9.4561C159.024 9.6748 158.914 9.9391 158.837 10.249C158.764 10.5544 158.728 10.8984 158.728 11.2812V11.5547C158.728 11.8783 158.771 12.179 158.857 12.457C158.949 12.7305 159.081 12.9697 159.254 13.1748C159.427 13.3799 159.637 13.5417 159.883 13.6602C160.129 13.7741 160.409 13.8311 160.724 13.8311C161.12 13.8311 161.473 13.7513 161.783 13.5918C162.093 13.4323 162.362 13.2067 162.59 12.915L163.458 13.7559C163.299 13.9883 163.091 14.2116 162.836 14.4258C162.581 14.6354 162.269 14.8063 161.899 14.9385C161.535 15.0706 161.111 15.1367 160.628 15.1367Z" fill="#13161B"/>
</svg>
