<svg width="134" height="18" viewBox="0 0 134 18" fill="none" xmlns="http://www.w3.org/2000/svg">
<path d="M0.944 17V1.112H3.032L12.848 14.48V1.112H14.648V17H12.56L2.744 3.584V17H0.944ZM31.3616 17.192C30.1616 17.192 29.0656 16.984 28.0736 16.568C27.0816 16.152 26.2256 15.568 25.5056 14.816C24.8016 14.064 24.2576 13.2 23.8736 12.224C23.4896 11.232 23.2976 10.176 23.2976 9.056C23.2976 7.92 23.4896 6.864 23.8736 5.888C24.2576 4.912 24.8016 4.048 25.5056 3.296C26.2256 2.544 27.0816 1.96 28.0736 1.544C29.0656 1.128 30.1616 0.92 31.3616 0.92C32.5616 0.92 33.6576 1.128 34.6496 1.544C35.6416 1.96 36.4896 2.544 37.1936 3.296C37.9136 4.048 38.4656 4.912 38.8496 5.888C39.2336 6.864 39.4256 7.92 39.4256 9.056C39.4256 10.176 39.2336 11.232 38.8496 12.224C38.4656 13.2 37.9136 14.064 37.1936 14.816C36.4896 15.568 35.6416 16.152 34.6496 16.568C33.6576 16.984 32.5616 17.192 31.3616 17.192ZM31.3616 15.44C32.6576 15.44 33.7696 15.16 34.6976 14.6C35.6416 14.024 36.3616 13.256 36.8576 12.296C37.3696 11.32 37.6256 10.24 37.6256 9.056C37.6256 7.856 37.3696 6.776 36.8576 5.816C36.3616 4.856 35.6416 4.096 34.6976 3.536C33.7696 2.96 32.6576 2.672 31.3616 2.672C30.0816 2.672 28.9696 2.96 28.0256 3.536C27.0816 4.096 26.3536 4.856 25.8416 5.816C25.3456 6.776 25.0976 7.856 25.0976 9.056C25.0976 10.24 25.3456 11.32 25.8416 12.296C26.3536 13.256 27.0816 14.024 28.0256 14.6C28.9696 15.16 30.0816 15.44 31.3616 15.44ZM52.3443 17L45.9123 1.112H47.8803L53.3763 14.96L58.8723 1.112H60.8403L54.4083 17H52.3443ZM68.6146 17V1.112H70.4146V17H68.6146ZM80.0699 17V1.112H87.6779C89.3099 1.112 90.6059 1.56 91.5659 2.456C92.5419 3.352 93.0299 4.56 93.0299 6.08C93.0299 7.104 92.8299 7.92 92.4299 8.528C92.0459 9.136 91.5579 9.6 90.9659 9.92C90.3739 10.224 89.7819 10.448 89.1899 10.592L93.3659 17H91.2299L87.3899 10.904H81.8699V17H80.0699ZM81.8699 9.2H87.3659C87.9419 9.2 88.5259 9.112 89.1179 8.936C89.7099 8.76 90.2059 8.448 90.6059 8C91.0219 7.536 91.2299 6.896 91.2299 6.08C91.2299 5.072 90.8859 4.28 90.1979 3.704C89.5099 3.112 88.5979 2.816 87.4619 2.816H81.8699V9.2ZM100.013 17L106.757 1.112H109.013L115.757 17H113.765L111.821 12.392H103.949L102.005 17H100.013ZM104.645 10.736H111.125L107.885 2.984L104.645 10.736ZM123.535 17V1.112H125.335V15.272H133.999V17H123.535Z" fill="#13161B"/>
</svg>
